<svg xmlns="http://www.w3.org/2000/svg" xml:space="preserve" width="2000" height="1500" data-id="lg_drrkpavgQ7abdQBvsI" data-version="1"><path fill="#fff" stroke="transparent" d="M0 0h2000v1500H0z"/><g data-padding="20"><path fill="#ff3d8a" stroke="null" stroke-width="2.831" d="M505.906 949.894H310.782q-18.572 0-25.084-9.54-6.54-9.514-6.54-21.065V572.67q0-24.065 29.104-24.065 30.096 0 30.096 24.065v326.575h167.548q18.063 0 18.063 24.574.99 26.075-18.063 26.075ZM650.38 551.097h109.34q13.051 0 27.094 5.52t27.094 14.043h-.51q13.052 9.541 20.073 24.83 7.021 15.316 7.021 35.36v238.271q0 40.656-27.094 60.7-13.051 9.541-26.84 14.807t-26.839 5.266H650.38q-13.05 0-26.838-5.266t-26.84-14.807q-13.052-10.022-20.073-24.83-7.021-14.778-7.021-35.87v-238.27q0-20.045 7.021-35.362 7.021-15.288 20.073-24.829h-.51q13.052-8.522 27.095-14.042t27.094-5.521Zm12.542 348.148h84.255q18.573 0 26.104-10.56 7.502-10.533 7.502-23.556V635.38q0-12.542-7.502-23.074-7.531-10.531-26.104-10.531h-84.255q-18.572 0-26.103 10.531-7.503 10.532-7.503 23.074v229.75q0 13.022 7.503 23.554 7.53 10.56 26.103 10.56Zm371.193 52.66q-10.022 0-21.318-3.257t-16.308-12.287q-11.522-39.126-24.065-80.263t-25.084-80.773q-14.042-46.658-30.095-97.052-16.053-50.423-30.095-96.571-3.03-11.042 3.51-19.309 6.512-8.267 18.545-12.287 7.53-2.01 13.051-2.01 17.044 0 22.055 17.043l37.145 118.91q5.011 18.034 11.778 39.607t13.787 44.138q7.022 22.593 14.043 44.902 7.021 22.338 13.051 41.392 9.542-31.596 20.81-68.486 11.296-36.862 23.073-74.97 11.806-38.135 23.33-75.506 11.55-37.372 21.573-69.987 5.52-17.043 21.573-17.043 6.03 0 14.043 2.01 27.604 7.53 21.573 31.596-27.094 87.794-54.67 177.06-27.603 89.295-54.698 177.6-3.992 10.021-14.778 12.768-10.787 2.774-21.829 2.774Zm409.33-2.01h-183.601q-18.544 0-25.084-9.542-6.512-9.513-6.512-21.064V581.192q0-11.523 6.512-20.809 6.54-9.286 25.084-9.286h174.57q18.572 0 19.563 25.084.99 25.594-19.564 25.594h-146.965v297.47h155.997q18.544 0 19.053 24.574 1.02 26.075-19.053 26.075Zm-27.604-207.667q0 17.554-12.287 29.586t-29.84 12.033q-17.044 0-29.105-12.033-12.033-12.032-12.033-29.586t12.033-29.613q12.06-12.033 29.104-12.033 17.553 0 29.84 12.033 12.288 12.06 12.288 29.613Zm166.557-191.131h58.18q12.033 0 26.33 5.52t27.35 14.043h-.51q13.051 9.541 20.073 24.83 7.02 15.316 7.02 35.36v24.094q0 46.657-45.156 75.733-45.129 28.595-45.129 58.209v38.617q0 21.573-30.095 22.564-29.104 0-29.104-22.564v-37.626q0-28.595 11.777-48.668 11.806-20.044 32.87-30.576 22.055-10.05 33.86-25.34 11.778-15.316 11.778-34.37V635.38q0-12.542-7.757-23.074-7.786-10.531-26.358-10.531h-32.587q-18.572 0-26.103 10.531-7.503 10.532-7.503 23.074v20.073q0 23.556-30.095 23.556-29.104 0-29.104-23.556v-24.602q0-40.628 26.584-60.19h-.51q13.052-8.523 27.095-14.043t27.094-5.521Zm59.2 357.66q0 17.554-11.806 29.36-11.778 11.777-28.85 11.777-17.043 0-28.821-11.778-11.806-11.805-11.806-29.359 0-17.043 11.806-28.594 11.778-11.523 28.821-11.523 17.072 0 28.85 11.523 11.806 11.55 11.806 28.594Z" font-family="Gugi" font-size="177.18"/><path fill="transparent" stroke="transparent" stroke-width="2.947" d="M250 539.293h1500v421.414H250z"/></g></svg>